<svg width="11" height="11" viewBox="0 0 11 11" fill="none" xmlns="http://www.w3.org/2000/svg">
<path d="M9.6263 8.70837H1.3763C1.25474 8.70837 1.13817 8.75666 1.05221 8.84262C0.966257 8.92857 0.917969 9.04515 0.917969 9.16671C0.917969 9.28826 0.966257 9.40484 1.05221 9.4908C1.13817 9.57675 1.25474 9.62504 1.3763 9.62504H9.6263C9.74786 9.62504 9.86444 9.57675 9.95039 9.4908C10.0363 9.40484 10.0846 9.28826 10.0846 9.16671C10.0846 9.04515 10.0363 8.92857 9.95039 8.84262C9.86444 8.75666 9.74786 8.70837 9.6263 8.70837Z" fill="#2563EB"/>
<path d="M5.50188 0.916626C5.38032 0.916626 5.26374 0.964915 5.17778 1.05087C5.09183 1.13682 5.04354 1.2534 5.04354 1.37496V6.22871L3.53563 4.71621C3.44932 4.6299 3.33226 4.58142 3.21021 4.58142C3.08815 4.58142 2.9711 4.6299 2.88479 4.71621C2.79849 4.80252 2.75 4.91957 2.75 5.04163C2.75 5.16368 2.79849 5.28074 2.88479 5.36704L5.17646 7.65871C5.21907 7.70167 5.26976 7.73577 5.32561 7.75904C5.38146 7.78231 5.44137 7.79429 5.50188 7.79429C5.56238 7.79429 5.62229 7.78231 5.67814 7.75904C5.73399 7.73577 5.78468 7.70167 5.82729 7.65871L8.11896 5.36704C8.16169 5.32431 8.19559 5.27358 8.21872 5.21774C8.24185 5.16191 8.25375 5.10206 8.25375 5.04163C8.25375 4.98119 8.24185 4.92135 8.21872 4.86551C8.19559 4.80968 8.16169 4.75894 8.11896 4.71621C8.07622 4.67348 8.02549 4.63958 7.96966 4.61645C7.91382 4.59332 7.85398 4.58142 7.79354 4.58142C7.73311 4.58142 7.67326 4.59332 7.61743 4.61645C7.56159 4.63958 7.51086 4.67348 7.46813 4.71621L5.96021 6.22871V1.37496C5.96021 1.2534 5.91192 1.13682 5.82597 1.05087C5.74001 0.964915 5.62343 0.916626 5.50188 0.916626Z" fill="#2563EB"/>
</svg>
