<svg width="11" height="11" viewBox="0 0 11 11" fill="none" xmlns="http://www.w3.org/2000/svg">
<g clip-path="url(#clip0_71_1009)">
<path d="M3.78159 0C3.20816 0 2.75168 0.464533 2.75168 1.0299V3.78058C2.75168 4.24931 3.43918 4.24931 3.43918 3.78058V1.0299C3.43918 0.833523 3.5946 0.687491 3.78159 0.687491H9.9711C10.1675 0.687491 10.3135 0.846944 10.3135 1.0299V9.97009C10.3135 10.1557 10.1675 10.3125 9.9711 10.3125H3.78159C3.5852 10.3125 3.43918 10.1557 3.43918 9.97009V7.21941C3.43918 6.76431 2.75168 6.75761 2.75168 7.21941V9.97009C2.75168 10.5422 3.21622 11 3.78159 11H9.9711C10.5365 11 11.001 10.5422 11.001 9.97009V1.0299C11.001 0.464533 10.5432 0 9.9711 0H3.78159ZM5.25864 4.02697L6.38791 5.15625H0.343414C-0.114471 5.15625 -0.114471 5.84374 0.343414 5.84374H6.38992L5.25864 6.97302C4.93369 7.29796 5.42111 7.7854 5.74606 7.46044L7.46414 5.74236C7.59784 5.60867 7.59784 5.39132 7.46414 5.25763L5.74606 3.53955C5.40152 3.22571 4.95232 3.69344 5.25864 4.02697Z" fill="#2563EB"/>
</g>
<defs>
<clipPath id="clip0_71_1009">
<rect width="11" height="11" fill="white"/>
</clipPath>
</defs>
</svg>
